<svg width="131" height="48" viewBox="0 0 131 48" fill="none" xmlns="http://www.w3.org/2000/svg">
<rect width="48" height="48" rx="12" fill="#4318FF"/>
<path d="M28.7667 32.5556H32.5556V28.7667C33.2889 27.4222 33.7778 25.7111 33.7778 24C33.7778 18.6222 29.3778 14.2222 24.0001 14.2222C18.6223 14.2222 14.2223 18.6222 14.2223 24C14.2223 29.3778 18.6223 33.7778 24.0001 33.7778C25.7112 33.7778 27.3001 33.2889 28.7667 32.5556V32.5556ZM24.0001 31.3333C19.9667 31.3333 16.6667 28.0333 16.6667 24C16.6667 19.9667 19.9667 16.6667 24.0001 16.6667C28.0334 16.6667 31.3334 19.9667 31.3334 24C31.3334 28.0333 28.0334 31.3333 24.0001 31.3333Z" fill="white"/>
<path d="M73.784 6.968H77.138V26H72.926V14.716L68.636 20.852H66.374L62.032 14.664V26H57.872V6.968H61.304L67.57 16.146L73.784 6.968ZM88.6765 22.256C90.3925 22.256 91.6405 21.3547 92.4205 19.552L96.1385 21.736C95.8612 22.568 95.3845 23.3393 94.7085 24.05C94.0325 24.7433 93.1832 25.298 92.1605 25.714C91.1552 26.13 90.0285 26.338 88.7805 26.338C87.0645 26.338 85.4958 25.9307 84.0745 25.116C82.6532 24.3013 81.5265 23.1487 80.6945 21.658C79.8625 20.15 79.4465 18.4167 79.4465 16.458C79.4465 14.4993 79.8625 12.7747 80.6945 11.284C81.5265 9.79333 82.6532 8.64067 84.0745 7.826C85.4958 7.01133 87.0645 6.604 88.7805 6.604C90.0285 6.604 91.1552 6.812 92.1605 7.228C93.1832 7.644 94.0325 8.20733 94.7085 8.918C95.3845 9.61133 95.8612 10.374 96.1385 11.206L92.4205 13.39C91.6405 11.5873 90.3925 10.686 88.6765 10.686C87.8272 10.686 87.0558 10.92 86.3625 11.388C85.6865 11.8387 85.1405 12.506 84.7245 13.39C84.3258 14.2567 84.1265 15.2793 84.1265 16.458C84.1265 17.6367 84.3258 18.668 84.7245 19.552C85.1405 20.436 85.6865 21.112 86.3625 21.58C87.0558 22.0307 87.8272 22.256 88.6765 22.256Z" fill="#4318FF"/>
<path d="M61.376 41.782C61.9267 41.782 62.398 41.6467 62.79 41.376C63.182 41.1053 63.4947 40.7273 63.728 40.242L64.96 40.97C64.6893 41.6327 64.2367 42.1647 63.602 42.566C62.9673 42.958 62.2347 43.154 61.404 43.154C60.5267 43.154 59.724 42.9347 58.996 42.496C58.2773 42.048 57.708 41.4227 57.288 40.62C56.868 39.8173 56.658 38.898 56.658 37.862C56.658 36.826 56.868 35.9067 57.288 35.104C57.708 34.3013 58.2773 33.6807 58.996 33.242C59.724 32.8033 60.5267 32.584 61.404 32.584C62.2347 32.584 62.9673 32.7847 63.602 33.186C64.2367 33.578 64.6893 34.1053 64.96 34.768L63.728 35.496C63.4947 35.0107 63.182 34.6327 62.79 34.362C62.398 34.0913 61.9267 33.956 61.376 33.956C60.7693 33.956 60.228 34.1193 59.752 34.446C59.276 34.7633 58.9073 35.2207 58.646 35.818C58.3847 36.406 58.254 37.0873 58.254 37.862C58.254 38.6367 58.3847 39.3227 58.646 39.92C58.9073 40.508 59.276 40.9653 59.752 41.292C60.228 41.6187 60.7693 41.782 61.376 41.782ZM67.7899 37.008H73.0119V32.752H74.5099V43H73.0119V38.352H67.7899V43H66.2919V32.752H67.7899V37.008ZM80.8922 32.752L85.0082 43H83.3702L82.3202 40.256H78.1622L77.1542 43H75.6422L79.6042 32.752H80.8922ZM81.8162 38.94L80.1922 34.712L78.6522 38.94H81.8162ZM87.3829 32.752L92.8429 40.368V32.752H94.2429V43H92.9969L87.5369 35.37V43H86.1369V32.752H87.3829ZM100.964 38.856V37.526H104.548V41.586C104.24 42.0433 103.759 42.4213 103.106 42.72C102.462 43.0093 101.739 43.154 100.936 43.154C99.9745 43.154 99.1158 42.9347 98.3598 42.496C97.6038 42.048 97.0112 41.4227 96.5818 40.62C96.1525 39.808 95.9378 38.884 95.9378 37.848C95.9378 36.812 96.1525 35.8973 96.5818 35.104C97.0205 34.3013 97.6132 33.6807 98.3598 33.242C99.1158 32.8033 99.9512 32.584 100.866 32.584C101.725 32.584 102.476 32.7707 103.12 33.144C103.773 33.508 104.235 34.0073 104.506 34.642L103.274 35.356C103.059 34.936 102.737 34.6 102.308 34.348C101.879 34.0867 101.379 33.956 100.81 33.956C100.175 33.956 99.6058 34.1193 99.1018 34.446C98.6072 34.7633 98.2198 35.2207 97.9398 35.818C97.6598 36.406 97.5198 37.0827 97.5198 37.848C97.5198 38.632 97.6645 39.3227 97.9538 39.92C98.2432 40.508 98.6538 40.9653 99.1858 41.292C99.7178 41.6187 100.334 41.782 101.034 41.782C101.93 41.782 102.602 41.544 103.05 41.068V38.856H100.964ZM107.712 43H106.214V32.752H107.712V43ZM111.176 32.752L116.636 40.368V32.752H118.036V43H116.79L111.33 35.37V43H109.93V32.752H111.176ZM124.757 38.856V37.526H128.341V41.586C128.033 42.0433 127.552 42.4213 126.899 42.72C126.255 43.0093 125.531 43.154 124.729 43.154C123.767 43.154 122.909 42.9347 122.153 42.496C121.397 42.048 120.804 41.4227 120.375 40.62C119.945 39.808 119.731 38.884 119.731 37.848C119.731 36.812 119.945 35.8973 120.375 35.104C120.813 34.3013 121.406 33.6807 122.153 33.242C122.909 32.8033 123.744 32.584 124.659 32.584C125.517 32.584 126.269 32.7707 126.913 33.144C127.566 33.508 128.028 34.0073 128.299 34.642L127.067 35.356C126.852 34.936 126.53 34.6 126.101 34.348C125.671 34.0867 125.172 33.956 124.603 33.956C123.968 33.956 123.399 34.1193 122.895 34.446C122.4 34.7633 122.013 35.2207 121.733 35.818C121.453 36.406 121.313 37.0827 121.313 37.848C121.313 38.632 121.457 39.3227 121.747 39.92C122.036 40.508 122.447 40.9653 122.979 41.292C123.511 41.6187 124.127 41.782 124.827 41.782C125.723 41.782 126.395 41.544 126.843 41.068V38.856H124.757Z" fill="#4318FF"/>
</svg>
