<svg width="48" height="48" viewBox="0 0 48 48" fill="none" xmlns="http://www.w3.org/2000/svg">
<rect width="48" height="48" rx="12" fill="#4318FF"/>
<path d="M28.7667 32.5556H32.5556V28.7667C33.2889 27.4222 33.7778 25.7111 33.7778 24C33.7778 18.6222 29.3778 14.2222 24.0001 14.2222C18.6223 14.2222 14.2223 18.6222 14.2223 24C14.2223 29.3778 18.6223 33.7778 24.0001 33.7778C25.7112 33.7778 27.3001 33.2889 28.7667 32.5556ZM24.0001 31.3333C19.9667 31.3333 16.6667 28.0333 16.6667 24C16.6667 19.9667 19.9667 16.6667 24.0001 16.6667C28.0334 16.6667 31.3334 19.9667 31.3334 24C31.3334 28.0333 28.0334 31.3333 24.0001 31.3333Z" fill="white"/>
</svg>
