<svg width="48" height="48" viewBox="0 0 48 48" fill="none" xmlns="http://www.w3.org/2000/svg">
<rect width="48" height="48" rx="12" fill="#4318FF"/>
<path d="M13.9491 15.7732L23.1167 11.9534C23.3959 11.8375 23.6953 11.7779 23.9976 11.7779C24.3 11.7779 24.5993 11.8375 24.8786 11.9534L34.0461 15.7732C34.9008 16.1265 35.4595 16.9621 35.4595 17.8884C35.4595 27.3663 29.9924 33.9173 24.8834 36.0469C24.3199 36.2808 23.6849 36.2808 23.1215 36.0469C19.0295 34.3423 12.5406 28.455 12.5406 17.8884C12.5406 16.9621 13.0992 16.1265 13.9491 15.7732ZM23.9952 33.0865L24 14.8946L15.6012 18.3945C15.7588 25.6235 19.5213 30.8615 23.9952 33.0865Z" fill="white"/>
</svg>
